<svg xmlns="http://www.w3.org/2000/svg" viewBox="0 0 512 512" width="512" height="512">
  <defs>
    <style>
      .green { fill: #5b9c65; }
      .white { fill: #ffffff; }
    </style>
  </defs>
  
  <!-- Green background with rounded corners -->
  <rect width="512" height="512" rx="64" ry="64" class="green"/>
  
  <!-- The distinctive white curved shape from the Vendasta logo -->
  <path d="M 0 64 
           C 0 28.7 28.7 0 64 0 
           L 320 0 
           C 320 0 150 150 150 256
           C 150 362 320 512 320 512
           L 64 512 
           C 28.7 512 0 483.3 0 448 
           Z
           
           M 448 0 
           C 483.3 0 512 28.7 512 64 
           L 512 448 
           C 512 483.3 483.3 512 448 512 
           C 420 512 400 490 400 460
           C 400 300 450 256 450 256
           C 450 256 400 212 400 52
           C 400 22 420 0 448 0 
           Z" 
        class="white"/>
</svg> 