<svg xmlns="http://www.w3.org/2000/svg" viewBox="0 0 512 512" width="512" height="512">
  <defs>
    <style>
      .green { fill: #4a9b5e; }
      .white { fill: #ffffff; }
    </style>
  </defs>
  
  <!-- Background with rounded corners -->
  <rect width="512" height="512" rx="64" ry="64" class="white"/>
  
  <!-- Top curved section -->
  <path d="M0 64 C0 28.7 28.7 0 64 0 L448 0 C483.3 0 512 28.7 512 64 L512 256 C512 256 400 150 200 200 C100 225 0 300 0 300 Z" class="green"/>
  
  <!-- Bottom curved section -->
  <path d="M0 448 C0 483.3 28.7 512 64 512 L448 512 C483.3 512 512 483.3 512 448 L512 256 C512 256 400 362 200 312 C100 287 0 212 0 212 Z" class="green"/>
  
  <!-- Right curved section -->
  <path d="M448 0 C483.3 0 512 28.7 512 64 L512 448 C512 483.3 483.3 512 448 512 C448 512 400 400 450 200 C475 100 448 0 448 0 Z" class="green"/>
</svg> 